<svg width="292" height="295" viewBox="0 0 292 295" fill="none" xmlns="http://www.w3.org/2000/svg">
<path d="M225 70V65C225 37.3858 202.614 15 175 15H65C37.3858 15 15 37.3858 15 65V230C15 257.614 37.3858 280 65 280H125H175C202.614 280 225 257.614 225 230V225" stroke="#F3F3F3" stroke-width="30" stroke-linecap="round" stroke-linejoin="round"/>
<path d="M0 93H64" stroke="#F3F3F3" stroke-width="24"/>
<path d="M0 137H64" stroke="#F3F3F3" stroke-width="24"/>
<path d="M277 141.34C283.667 145.189 283.667 154.811 277 158.66L187 210.622C180.333 214.471 172 209.66 172 201.962L172 98.0385C172 90.3405 180.333 85.5292 187 89.3782L277 141.34Z" fill="#F3F3F3"/>
</svg>
