<svg width="64" height="64" viewBox="0 0 64 64" fill="none" xmlns="http://www.w3.org/2000/svg">
<path fill-rule="evenodd" clip-rule="evenodd" d="M38.6819 34.0455V16.1818C38.6819 12.7677 35.9142 10 32.5001 10C29.0859 10 26.3182 12.7677 26.3182 16.1818V34.0455C26.3182 37.4596 29.0859 40.2273 32.5001 40.2273C35.9142 40.2273 38.6819 37.4596 38.6819 34.0455ZM32.5001 6C26.8768 6 22.3182 10.5586 22.3182 16.1818V34.0455C22.3182 39.6687 26.8768 44.2273 32.5001 44.2273C38.1233 44.2273 42.6819 39.6687 42.6819 34.0455V16.1818C42.6819 10.5586 38.1233 6 32.5001 6Z" fill="#F3F3F3"/>
<path fill-rule="evenodd" clip-rule="evenodd" d="M30.9728 19.1001H22.3182V16.1001H30.9728V19.1001Z" fill="#F3F3F3"/>
<path fill-rule="evenodd" clip-rule="evenodd" d="M30.9728 24.8999H22.3182V21.8999H30.9728V24.8999Z" fill="#F3F3F3"/>
<path fill-rule="evenodd" clip-rule="evenodd" d="M18.5 32.4458C19.3284 32.4458 20 33.1174 20 33.9458V34.4458C20 41.3494 25.5964 46.9458 32.5 46.9458C39.4036 46.9458 45 41.3494 45 34.4458V33.9458C45 33.1174 45.6716 32.4458 46.5 32.4458C47.3284 32.4458 48 33.1174 48 33.9458V34.4458C48 43.0062 41.0604 49.9458 32.5 49.9458C23.9396 49.9458 17 43.0062 17 34.4458V33.9458C17 33.1174 17.6716 32.4458 18.5 32.4458Z" fill="#F3F3F3"/>
<path fill-rule="evenodd" clip-rule="evenodd" d="M40 57.4732C40 56.6596 39.3404 56 38.5268 56H26.4732C25.6596 56 25 56.6596 25 57.4732C25 58.2868 25.6596 58.9464 26.4732 58.9464H38.5268C39.3404 58.9464 40 58.2868 40 57.4732Z" fill="#F3F3F3"/>
<path fill-rule="evenodd" clip-rule="evenodd" d="M31 58.2273V49H34V58.2273H31Z" fill="#F3F3F3"/>
<circle cx="32" cy="32" r="31.5" stroke="#444F55"/>
</svg>
