<svg width="270" height="270" viewBox="0 0 270 270" fill="none" xmlns="http://www.w3.org/2000/svg">
<path d="M33 96H101" stroke="#F3F3F3" stroke-width="24"/>
<path d="M33 140H101" stroke="#F3F3F3" stroke-width="24"/>
<rect x="38" y="38" width="194" height="194" rx="97" stroke="#F3F3F3" stroke-width="32"/>
<path d="M83.7661 10.0991L93.2918 33.096" stroke="#F3F3F3" stroke-width="32"/>
<path d="M186.234 259.901L176.708 236.904" stroke="#F3F3F3" stroke-width="32"/>
<path d="M259.902 83.7656L236.905 93.2912" stroke="#F3F3F3" stroke-width="32"/>
<path d="M10.0985 186.235L33.0955 176.709" stroke="#F3F3F3" stroke-width="32"/>
<path d="M187.09 10.4541L177.565 33.451" stroke="#F3F3F3" stroke-width="32"/>
<path d="M82.9092 259.546L92.4348 236.549" stroke="#F3F3F3" stroke-width="32"/>
<path d="M259.546 187.091L236.549 177.566" stroke="#F3F3F3" stroke-width="32"/>
<path d="M10.4531 82.9102L33.4501 92.4358" stroke="#F3F3F3" stroke-width="32"/>
<path d="M39.8685 39.2129L57.4696 56.814" stroke="#F3F3F3" stroke-width="32"/>
<path d="M230.132 230.787L212.531 213.186" stroke="#F3F3F3" stroke-width="32"/>
<path d="M230.787 39.8691L213.186 57.4702" stroke="#F3F3F3" stroke-width="32"/>
<path d="M39.2125 230.133L56.8136 212.532" stroke="#F3F3F3" stroke-width="32"/>
<path d="M135.464 0L135.464 24.8917" stroke="#F3F3F3" stroke-width="32"/>
<path d="M134.536 270L134.536 245.109" stroke="#F3F3F3" stroke-width="32"/>
<path d="M270 135.463L245.109 135.463" stroke="#F3F3F3" stroke-width="32"/>
<path d="M0 134.536L24.8917 134.536" stroke="#F3F3F3" stroke-width="32"/>
</svg>
